# xmcd
#
# Track frame offsets:
#	150
#	18592
#	38735
#	53832
#	73467
#	90462
#	104795
#	124010
#	141152
#	153750
#	173395
#	187397
#	207865
#	225837
#	246120
#	260460
#
# Disc length: 3690 seconds
#
# Revision: 1
# Processed by: cddbd v1.5.1PL0 Copyright (c) Steve Scherf et al.
# Submitted via: CDex 1.50Beta5
#
DISCID=db0e6810
DTITLE=さまざまなアーティスト - Super Select
DYEAR=1900
DGENRE=Pop
TTITLE0=中森明菜/スローモーション
TTITLE1=WINK/淋しい熱帯魚
TTITLE2=大西結花/シャドウ・ハンター
TTITLE3=菊地桃子/BOYのテーマ
TTITLE4=三原順子/セクシー・ナイト
TTITLE5=倉田まり子/グラジュエイション
TTITLE6=八木さおり/瞳で片想い
TTITLE7=岩井小百合/ドリーム・ドリーム・ドリーム
TTITLE8=キャンディ・レイ/初恋のメルヘン
TTITLE9=杉浦幸/悲しいな
TTITLE10=鹿取洋子/ゴーイン・バック・トゥ・チャイナ
TTITLE11=薬師丸ひろ子/セーラー服と機関銃
TTITLE12=本田美奈子/1986年のマリリン(アルバムバージョン)
TTITLE13=秋ひとみ/サマー・メランコリー
TTITLE14=北原佐和子/マイ・ボーイフレンド
TTITLE15=黒木真由美/好奇心
EXTD=
EXTT0=
EXTT1=
EXTT2=
EXTT3=
EXTT4=
EXTT5=
EXTT6=
EXTT7=
EXTT8=
EXTT9=
EXTT10=
EXTT11=
EXTT12=
EXTT13=
EXTT14=
EXTT15=
PLAYORDER=
